<?xml version="1.0" encoding="utf-8"?>
<!-- Svg Vector Icons : http://www.onlinewebfonts.com/icon -->
<!DOCTYPE svg PUBLIC "-//W3C//DTD SVG 1.1//EN" "http://www.w3.org/Graphics/SVG/1.1/DTD/svg11.dtd">
<svg version="1.1" xmlns="http://www.w3.org/2000/svg" xmlns:xlink="http://www.w3.org/1999/xlink" x="0px" y="0px" viewBox="0 0 1000 1000" enable-background="new 0 0 1000 1000" xml:space="preserve">
<metadata> Svg Vector Icons : http://www.onlinewebfonts.com/icon </metadata>
<g><g transform="translate(0.000000,511.000000) scale(0.100000,-0.100000)"><defs><style>.cls-1{fill:#CFE775;}</style></defs><title/><path class="cls-1" d="M479.2,4273.2c-155-42.1-292.9-174.2-350.3-335c-24.9-72.7-28.7-526.4-28.7-3828.4c0-4180.6-11.5-3841.8,135.9-4010.3c42.1-45.9,116.8-105.3,166.5-130.2l90-44h3914.6h3914.5l78.5,42.1c122.5,65.1,197.2,135.9,252.7,243.1l51.7,97.6l5.7,1661.5c3.8,1546.7,1.9,1661.5-26.8,1673c-24.9,9.6-88.1-45.9-250.8-216.3c-120.6-124.4-231.6-254.6-246.9-289c-23-51.7-26.8-239.3-26.8-1142.8c0-1041.3-1.9-1085.3-38.3-1186.8c-51.7-137.8-187.6-266.1-327.3-306.3c-90-26.8-451.8-30.6-3393.9-30.6c-2186,0-3317.3,7.7-3365.2,19.1c-130.2,36.4-248.8,135.9-315.8,266.1l-63.2,120.6V107.9V3339l63.2,122.5c67,130.2,181.9,225.9,315.8,264.2c47.9,11.5,1184.9,19.1,3376.7,19.1c3254.1,0,3307.7,0,3407.3-38.3c118.7-44,245-162.7,296.7-277.6c24.9-55.5,36.4-147.4,44-335c9.6-250.8,11.5-258.4,51.7-258.4c26.8,0,116.8,70.8,252.7,197.2c158.9,149.3,216.3,214.4,233.5,269.9c13.4,45.9,19.1,172.3,13.4,338.8c-7.6,241.2-13.4,275.6-57.4,361.8c-59.3,112.9-126.3,179.9-245,241.2l-86.1,45.9l-3876.3,3.8C1369.3,4296.1,550.1,4292.3,479.2,4273.2z"/><path class="cls-1" d="M9049.1,2837.5c-36.4-15.3-752.3-771.4-1805.1-1900.8C6283.1-93.1,5471.5-952.6,5438.9-971.7c-80.4-47.9-241.2-61.3-323.5-26.8c-36.4,15.3-415.4,285.2-842.2,597.2c-425,313.9-800.1,583.8-832.7,601.1c-76.6,40.2-212.5,38.3-300.5-3.8c-91.9-44-467.1-534.1-486.2-633.6c-15.3-84.2,1.9-176.1,47.9-248.8c42.1-68.9,2469.3-1868.3,2565-1900.8c36.4-13.4,93.8-23,128.3-23c168.4,0,99.5-70.8,2339.1,2333.4C8896,971.2,9860.8,2020.2,9874.1,2054.6c34.5,78.5,34.5,181.8,0,260.3c-28.7,68.9-434.5,463.2-532.1,516.8C9269.3,2870.1,9131.4,2873.9,9049.1,2837.5z"/></g></g>
</svg>